<svg xmlns="http://www.w3.org/2000/svg" width="65.313" height="65.313" viewBox="0 0 65.313 65.313">
  <g id="Group_272" data-name="Group 272" transform="translate(-336 -134)">
    <circle id="Ellipse_34" data-name="Ellipse 34" cx="26.5" cy="26.5" r="26.5" transform="translate(342 140)" fill="#fff"/>
    <g id="页面-1" transform="translate(336 134)">
      <g id="System">
        <g id="close_circle_line">
          <path id="MingCute" d="M65.313,0V65.313H0V0ZM34.272,63.294l-.031,0-.193.1-.052.01h0l-.041-.01-.193-.1a.058.058,0,0,0-.064.015l-.011.03-.047,1.163.013.055.03.033.282.2.04.011h0l.032-.011.282-.2.034-.044h0l.009-.045-.047-1.163a.058.058,0,0,0-.044-.049Zm.721-.306-.038.006-.5.251-.027.028h0l-.007.031.049,1.169.013.035h0l.023.019.547.252a.068.068,0,0,0,.078-.022l.011-.038-.093-1.673a.069.069,0,0,0-.052-.058Zm-1.947.006a.062.062,0,0,0-.075.014l-.016.038-.093,1.673a.062.062,0,0,0,.046.064l.042,0,.547-.252.026-.022h0l.01-.032.049-1.169-.009-.034h0l-.026-.024Z" fill="none"/>
          <path id="形状" d="M29.214,2A27.214,27.214,0,1,1,2,29.214,27.214,27.214,0,0,1,29.214,2Zm0,5.443A21.771,21.771,0,1,0,50.985,29.214,21.771,21.771,0,0,0,29.214,7.443ZM23.441,19.592l5.773,5.773,5.773-5.773a2.721,2.721,0,1,1,3.849,3.849l-5.773,5.773,5.773,5.773a2.721,2.721,0,1,1-3.849,3.849l-5.773-5.773-5.773,5.773a2.721,2.721,0,0,1-3.849-3.849l5.773-5.773-5.773-5.773a2.721,2.721,0,0,1,3.849-3.849Z" transform="translate(3.443 3.443)" fill="#6f6f6f"/>
        </g>
      </g>
    </g>
  </g>
</svg>
