<svg id="页面-1" xmlns="http://www.w3.org/2000/svg" width="30.341" height="27.032" viewBox="0 0 30.341 27.032">
  <g id="Building">
    <g id="store_line">
      <path id="MingCute" d="M30.341,0V27.032H0V0ZM15.921,26.2l-.015,0-.09.04-.024,0h0l-.019,0-.09-.04a.029.029,0,0,0-.03.006l-.005.012-.022.481.006.023.014.014.131.083.019,0h0l.015,0,.131-.083.016-.018h0l0-.019-.022-.481a.025.025,0,0,0-.02-.02Zm.335-.127-.017,0-.234.1-.013.012h0l0,.013.023.484.006.014h0l.011.008.254.1a.034.034,0,0,0,.036-.009l.005-.016-.043-.692a.03.03,0,0,0-.024-.024Zm-.9,0a.031.031,0,0,0-.035.006l-.007.016-.043.692a.026.026,0,0,0,.021.026h.02l.254-.1.012-.009h0l0-.013L15.6,26.2l0-.014h0l-.012-.01Z" fill="none"/>
      <path id="形状" d="M23.731,3a2.875,2.875,0,0,1,2.243,1.048l3.769,4.7a1.247,1.247,0,0,1,.286.807h.012v1.31a5.029,5.029,0,0,1-1.4,3.466v9.634a2.717,2.717,0,0,1-2.8,2.62H6.206a2.717,2.717,0,0,1-2.8-2.62V14.326A5.03,5.03,0,0,1,2,10.86V9.55h.012A1.248,1.248,0,0,1,2.3,8.743l3.769-4.7A2.875,2.875,0,0,1,8.309,3ZM20.226,14.326a5.873,5.873,0,0,1-8.412,0A5.77,5.77,0,0,1,7.608,16.1a6.023,6.023,0,0,1-1.062-.094l-.34-.071v8.025H25.834V15.935l-.34.071a6.023,6.023,0,0,1-1.062.094A5.77,5.77,0,0,1,20.226,14.326Zm7.01-3.466H21.628a2.817,2.817,0,0,0,5.6.2Zm-8.412,0H13.216a2.717,2.717,0,0,0,2.8,2.62,2.734,2.734,0,0,0,2.8-2.425Zm-8.412,0H4.8a2.717,2.717,0,0,0,2.8,2.62,2.734,2.734,0,0,0,2.8-2.425ZM23.731,5.62H8.309l-2.1,2.62H25.834Z" transform="translate(-0.85 -1.275)" fill="#4e69ff" fill-rule="evenodd"/>
    </g>
  </g>
</svg>
