<svg id="页面-1" xmlns="http://www.w3.org/2000/svg" width="24" height="24" viewBox="0 0 24 24">
  <g id="User" transform="translate(-192)">
    <g id="user_3_line" transform="translate(192)">
      <path id="MingCute" d="M24,0V24H0V0ZM12.593,23.258l-.012,0-.071.036-.019,0h0l-.015,0-.071-.036a.021.021,0,0,0-.024.005l0,.011-.017.427,0,.02.011.012.1.074.015,0h0l.012,0,.1-.074.013-.016h0l0-.017-.017-.427a.021.021,0,0,0-.016-.018Zm.265-.113-.014,0-.185.092-.01.01h0l0,.011.018.43,0,.013h0l.008.007.2.093a.025.025,0,0,0,.028-.008l0-.014-.034-.615a.025.025,0,0,0-.019-.021Zm-.715,0a.023.023,0,0,0-.027.005l-.006.014-.034.615a.023.023,0,0,0,.017.023h.016l.2-.093.009-.008h0l0-.012.018-.43,0-.013h0l-.009-.009Z" fill="none"/>
      <path id="形状" d="M12,13a12.036,12.036,0,0,1,6.178,1.672,7.487,7.487,0,0,1,1.978,1.69A3.517,3.517,0,0,1,21,18.5a2.5,2.5,0,0,1-1,1.986,5.64,5.64,0,0,1-2.084.956A24.588,24.588,0,0,1,12,22a24.589,24.589,0,0,1-5.913-.558A5.641,5.641,0,0,1,4,20.486,2.5,2.5,0,0,1,3,18.5a3.517,3.517,0,0,1,.844-2.139,7.488,7.488,0,0,1,1.978-1.69A12.037,12.037,0,0,1,12,13Zm0,2a10.04,10.04,0,0,0-5.136,1.379A5.508,5.508,0,0,0,5.413,17.6,1.579,1.579,0,0,0,5,18.5c0,.122.037.251.255.426a3.733,3.733,0,0,0,1.344.582A22.757,22.757,0,0,0,12,20a22.758,22.758,0,0,0,5.4-.492,3.734,3.734,0,0,0,1.344-.582c.218-.175.255-.3.255-.426a1.579,1.579,0,0,0-.413-.9,5.507,5.507,0,0,0-1.451-1.222A10.041,10.041,0,0,0,12,15ZM12,2A5,5,0,1,1,7,7,5,5,0,0,1,12,2Zm0,2a3,3,0,1,0,3,3A3,3,0,0,0,12,4Z" fill="#09244b" fill-rule="evenodd"/>
    </g>
  </g>
</svg>
