<svg id="页面-1" xmlns="http://www.w3.org/2000/svg" width="24" height="24" viewBox="0 0 24 24">
  <g id="File" transform="translate(-288)">
    <g id="docment_line" transform="translate(288)">
      <path id="MingCute" d="M24,0V24H0V0ZM12.593,23.258l-.012,0-.071.036-.019,0h0l-.015,0-.071-.036a.021.021,0,0,0-.024.005l0,.011-.017.427,0,.02.011.012.1.074.015,0h0l.012,0,.1-.074.013-.016h0l0-.017-.017-.427a.021.021,0,0,0-.016-.018Zm.265-.113-.014,0-.185.092-.01.01h0l0,.011.018.43,0,.013h0l.008.007.2.093a.025.025,0,0,0,.028-.008l0-.014-.034-.615a.025.025,0,0,0-.019-.021Zm-.715,0a.023.023,0,0,0-.027.005l-.006.014-.034.615a.023.023,0,0,0,.017.023h.016l.2-.093.009-.008h0l0-.012.018-.43,0-.013h0l-.009-.009Z" fill="none"/>
      <path id="形状" d="M4,4A2,2,0,0,1,6,2H18a2,2,0,0,1,2,2V20a2,2,0,0,1-2,2H6a2,2,0,0,1-2-2ZM18,4H6V20H18ZM8,9A1,1,0,0,1,9,8h6a1,1,0,0,1,0,2H9A1,1,0,0,1,8,9Zm1,4a1,1,0,0,0,0,2h3a1,1,0,0,0,0-2Z" fill="#09244b" fill-rule="evenodd"/>
    </g>
  </g>
</svg>
