<svg id="页面-1" xmlns="http://www.w3.org/2000/svg" width="27.693" height="27.693"
    viewBox="0 0 27.693 27.693">
    <g id="Brand">
        <g id="facebook_line">
            <path id="MingCute"
                d="M27.693,0V27.693H0V0ZM14.531,26.837l-.013,0-.082.041-.022,0h0l-.017,0-.082-.041a.025.025,0,0,0-.027.006l0,.013-.02.493.006.024.013.014.12.085.017,0h0l.014,0,.12-.085.015-.019h0l0-.019-.02-.493a.025.025,0,0,0-.019-.021Zm.306-.13-.016,0-.213.107-.011.012h0l0,.013.021.5.006.015h0l.01.008.232.107a.029.029,0,0,0,.033-.009l0-.016-.039-.709a.029.029,0,0,0-.022-.025Zm-.825,0a.026.026,0,0,0-.032.006l-.007.016-.039.709a.026.026,0,0,0,.019.027l.018,0,.232-.107.011-.009h0l0-.014.021-.5,0-.015h0l-.011-.01Z"
                fill="none" />
            <path id="形状"
                d="M4.308,13.539A9.231,9.231,0,1,1,14.693,22.7V15.846H17a1.154,1.154,0,1,0,0-2.308H14.693V11.231a1.154,1.154,0,0,1,1.154-1.154h.577a1.154,1.154,0,1,0,0-2.308h-.577a3.462,3.462,0,0,0-3.462,3.462v2.308H10.077a1.154,1.154,0,0,0,0,2.308h2.308V22.7A9.233,9.233,0,0,1,4.308,13.539Zm9.231,11.539A11.539,11.539,0,1,0,2,13.539,11.539,11.539,0,0,0,13.539,25.077Z"
                transform="translate(0.308 0.308)" fill="#007aff" fill-rule="evenodd" />
        </g>
    </g>
</svg>
