<svg xmlns="http://www.w3.org/2000/svg" xmlns:xlink="http://www.w3.org/1999/xlink" width="85" height="85" viewBox="0 0 85 85">
  <defs>
    <filter id="Ellipse_32" x="0" y="0" width="85" height="85" filterUnits="userSpaceOnUse">
      <feOffset dy="3" input="SourceAlpha"/>
      <feGaussianBlur stdDeviation="3" result="blur"/>
      <feFlood flood-opacity="0.161"/>
      <feComposite operator="in" in2="blur"/>
      <feComposite in="SourceGraphic"/>
    </filter>
  </defs>
  <g id="Group_313" data-name="Group 313" transform="translate(9 6)">
    <g id="Group_312" data-name="Group 312">
      <g id="Group_263" data-name="Group 263" transform="translate(-162 -759)">
        <g transform="matrix(1, 0, 0, 1, 153, 753)" filter="url(#Ellipse_32)">
          <g id="Ellipse_32-2" data-name="Ellipse 32" transform="translate(9 6)" fill="#f9aa32" stroke="#fff" stroke-width="3">
            <circle cx="33.5" cy="33.5" r="33.5" stroke="none"/>
            <circle cx="33.5" cy="33.5" r="32" fill="none"/>
          </g>
        </g>
        <g id="页面-1" transform="translate(175.646 772.646)">
          <g id="System">
            <g id="thumb_up_2_line">
              <path id="MingCute" d="M39.708,0V39.708H0V0ZM20.836,38.48l-.019,0-.118.059-.031.006h0l-.025-.006-.118-.059a.035.035,0,0,0-.039.009l-.007.018-.028.707.008.034.018.02.171.122.025.006h0l.019-.006.171-.122.021-.027h0l.006-.027-.028-.707a.035.035,0,0,0-.027-.03Zm.438-.186-.023,0-.306.153-.016.017h0l0,.019.03.711.008.021h0l.014.012.332.153a.042.042,0,0,0,.047-.013l.007-.023-.056-1.017a.042.042,0,0,0-.032-.035Zm-1.184,0a.038.038,0,0,0-.045.009l-.009.023-.056,1.017a.038.038,0,0,0,.028.039l.026,0,.332-.153.016-.013h0l.006-.02.03-.711-.005-.021h0L20.4,38.45Z" fill="none"/>
              <path id="形状" d="M14.286,3.974A3.053,3.053,0,0,1,17.633,2.1c2.44.47,5.029,2.32,5.21,5.319l.01.338V11.9h3.98A6.618,6.618,0,0,1,33.4,19.377l-.05.32-1.5,8.272A6.618,6.618,0,0,1,25.659,33.4l-.329.008H7.964a4.964,4.964,0,0,1-4.955-4.672L3,28.441V18.514a4.964,4.964,0,0,1,4.672-4.955l.292-.008h2.218ZM9.618,16.859H7.964a1.654,1.654,0,0,0-1.655,1.654v9.927A1.654,1.654,0,0,0,7.964,30.1H9.618ZM17.27,5.41l-4.209,9.822a1.655,1.655,0,0,0-.119.429l-.015.223V30.1h12.4a3.309,3.309,0,0,0,3.2-2.459l.058-.258,1.5-8.273a3.309,3.309,0,0,0-3.01-3.892l-.245-.009h-3.98a3.309,3.309,0,0,1-3.3-3.062l-.009-.247V7.759a2.579,2.579,0,0,0-1.993-2.267Z" transform="translate(1.964 1.34)" fill="#fff" fill-rule="evenodd"/>
            </g>
          </g>
        </g>
      </g>
    </g>
    <g id="Ellipse_35" data-name="Ellipse 35" transform="translate(42 11)" fill="red" stroke="#fff" stroke-width="2">
      <circle cx="7.5" cy="7.5" r="7.5" stroke="none"/>
      <circle cx="7.5" cy="7.5" r="6.5" fill="none"/>
    </g>
  </g>
</svg>
