<svg id="Icon" xmlns="http://www.w3.org/2000/svg" width="17.251" height="18.482" viewBox="0 0 17.251 18.482">
  <g id="User">
    <g id="user_edit_line">
      <path id="MingCute" d="M17.251,0V18.482H0V0Zm-8.2,17.911H9.044l-.051.027-.014,0-.011,0-.051-.027a.015.015,0,0,0-.017,0l0,.008-.012.329,0,.016.008.009.074.057.011,0,.008,0,.074-.057.009-.012,0-.013-.012-.329A.016.016,0,0,0,9.052,17.911Zm.19-.087-.01,0L9.1,17.9l-.007.008,0,.009.013.331,0,.01.006.005.144.071a.017.017,0,0,0,.02-.006l0-.011-.025-.473A.019.019,0,0,0,9.242,17.824Zm-.514,0a.016.016,0,0,0-.02,0l0,.011-.025.473a.017.017,0,0,0,.012.018H8.7l.144-.071.007-.006,0-.009.013-.331,0-.01L8.861,17.9Z" fill="none"/>
      <path id="形状" d="M5.049,6.116A3.973,3.973,0,0,1,8.86,2a3.973,3.973,0,0,1,3.811,4.116A3.973,3.973,0,0,1,8.86,10.232,3.973,3.973,0,0,1,5.049,6.116ZM8.86,3.646a2.384,2.384,0,0,0-2.287,2.47A2.384,2.384,0,0,0,8.86,8.586a2.383,2.383,0,0,0,2.287-2.47A2.383,2.383,0,0,0,8.86,3.646ZM3.84,14.844a1.354,1.354,0,0,0-.315.74.407.407,0,0,0,.156.316,2.27,2.27,0,0,0,.847.447,13.089,13.089,0,0,0,3.587.463.826.826,0,0,1-.033,1.646,14.392,14.392,0,0,1-4-.536,3.7,3.7,0,0,1-1.411-.792A2.1,2.1,0,0,1,2,15.584a3.028,3.028,0,0,1,.643-1.761,5.855,5.855,0,0,1,1.508-1.391A8.667,8.667,0,0,1,8.86,11.056a8.8,8.8,0,0,1,1,.057.81.81,0,0,1,.677.906.779.779,0,0,1-.838.732A7.386,7.386,0,0,0,8.86,12.7a7.229,7.229,0,0,0-3.915,1.135A4.3,4.3,0,0,0,3.84,14.844Zm12.8-2.937a1.807,1.807,0,0,0-2.695,0L11.344,14.72a1.274,1.274,0,0,0-.323.7l-.251,1.9a.8.8,0,0,0,.863.932l1.76-.272a1.115,1.115,0,0,0,.647-.349l2.6-2.814A2.176,2.176,0,0,0,16.644,11.907Zm-1.617,1.164a.362.362,0,0,1,.539,0,.435.435,0,0,1,0,.582L13.051,16.37l-.629.1.09-.679Z" transform="translate(-0.99 -0.99)" fill="#fff" fill-rule="evenodd"/>
    </g>
  </g>
</svg>
