<svg id="页面-1" xmlns="http://www.w3.org/2000/svg" width="29.113" height="29.113"
    viewBox="0 0 29.113 29.113">
    <g id="Brand">
        <g id="ins_line">
            <path id="MingCute"
                d="M29.113,0V29.113H0V0ZM15.277,28.213l-.014,0-.086.043-.023,0h0l-.018,0-.086-.043a.026.026,0,0,0-.029.007l0,.013-.021.518.006.025.013.015.126.09.018,0h0l.014,0,.126-.09.015-.019h0l0-.02-.021-.518a.026.026,0,0,0-.019-.022Zm.321-.137-.017,0-.224.112-.012.012h0l0,.014.022.521.006.016h0l.01.009.244.113a.031.031,0,0,0,.035-.01l0-.017-.041-.746a.031.031,0,0,0-.023-.026Zm-.868,0a.028.028,0,0,0-.033.006l-.007.017-.041.746a.028.028,0,0,0,.02.028l.019,0,.244-.113.011-.01h0l0-.014.022-.521,0-.015h0l-.012-.011Z"
                fill="none" />
            <path id="形状"
                d="M18.77,3a6.065,6.065,0,0,1,6.065,6.065v9.7a6.065,6.065,0,0,1-6.065,6.065h-9.7A6.065,6.065,0,0,1,3,18.77v-9.7A6.065,6.065,0,0,1,9.065,3Zm0,2.426h-9.7A3.639,3.639,0,0,0,5.426,9.065v9.7a3.639,3.639,0,0,0,3.639,3.639h9.7a3.639,3.639,0,0,0,3.639-3.639v-9.7A3.639,3.639,0,0,0,18.77,5.426ZM13.917,9.065a4.852,4.852,0,1,1-4.852,4.852A4.852,4.852,0,0,1,13.917,9.065Zm0,2.426a2.426,2.426,0,1,0,2.426,2.426A2.426,2.426,0,0,0,13.917,11.491Zm5.459-4.246a1.213,1.213,0,1,1-1.213,1.213A1.213,1.213,0,0,1,19.376,7.246Z"
                transform="translate(0.639 0.639)" fill="#e1306c" fill-rule="evenodd" />
        </g>
    </g>
</svg>
