<svg id="Icon" xmlns="http://www.w3.org/2000/svg" width="35" height="35" viewBox="0 0 35 35">
  <g id="Business">
    <g id="ticket_line">
      <path id="MingCute" d="M35,0V35H0V0ZM18.366,33.918l-.017,0-.1.052-.028.005-.022-.005-.1-.052a.031.031,0,0,0-.034.008l-.006.016-.025.623.007.03.016.018.151.108.022.006.017-.006.151-.108.018-.023,0-.024-.025-.623A.031.031,0,0,0,18.366,33.918Zm.386-.164-.02,0-.269.135-.014.015,0,.016.026.626.007.019.012.01.293.135a.037.037,0,0,0,.042-.012l.006-.02-.05-.9A.037.037,0,0,0,18.752,33.754Zm-1.043,0a.034.034,0,0,0-.04.008l-.008.02-.05.9a.033.033,0,0,0,.024.034l.023,0,.293-.135.014-.012.006-.017L18,33.922l0-.018-.014-.013Z" fill="none"/>
      <path id="形状" d="M6.65,7.375A1.623,1.623,0,0,0,5.1,9.063V25.938a1.623,1.623,0,0,0,1.55,1.688H17.765A4.7,4.7,0,0,1,22.15,24.25a4.7,4.7,0,0,1,4.385,3.375H28.35a1.623,1.623,0,0,0,1.55-1.687V9.063a1.623,1.623,0,0,0-1.55-1.687H26.535A4.7,4.7,0,0,1,22.15,10.75a4.7,4.7,0,0,1-4.385-3.375ZM2,9.063A4.869,4.869,0,0,1,6.65,4h12.4A1.623,1.623,0,0,1,20.6,5.688a1.556,1.556,0,1,0,3.1,0A1.623,1.623,0,0,1,25.25,4h3.1A4.869,4.869,0,0,1,33,9.063V25.938A4.869,4.869,0,0,1,28.35,31h-3.1a1.623,1.623,0,0,1-1.55-1.687,1.556,1.556,0,1,0-3.1,0A1.623,1.623,0,0,1,19.05,31H6.65A4.869,4.869,0,0,1,2,25.938Zm20.15,3.375a1.623,1.623,0,0,1,1.55,1.688v.844a1.556,1.556,0,1,1-3.1,0v-.844A1.623,1.623,0,0,1,22.15,12.438Zm1.55,7.594a1.556,1.556,0,1,0-3.1,0v.844a1.556,1.556,0,1,0,3.1,0Z" transform="translate(0)" fill="#747474" fill-rule="evenodd"/>
    </g>
  </g>
</svg>
