<svg id="File" xmlns="http://www.w3.org/2000/svg" width="35" height="35" viewBox="0 0 35 35">
  <g id="docment_line">
    <path id="MingCute" d="M35,0V35H0V0ZM18.366,33.918l-.017,0-.1.052-.028.005h0l-.022-.005-.1-.052a.031.031,0,0,0-.034.008l-.006.016-.025.623.007.03.016.018.151.108.022.006h0l.017-.006.151-.108.018-.023h0l0-.024-.025-.623a.031.031,0,0,0-.023-.026Zm.386-.164-.02,0-.269.135-.015.015h0l0,.016.026.626.007.019h0l.012.01.293.135a.037.037,0,0,0,.042-.012l.006-.021-.05-.9a.037.037,0,0,0-.028-.031Zm-1.043,0a.033.033,0,0,0-.04.008l-.008.02-.05.9a.033.033,0,0,0,.025.034l.023,0,.293-.135.014-.012h0l.006-.017L18,33.922l0-.018h0l-.014-.013Z" fill="none"/>
    <path id="形状" d="M4,5.1A3.246,3.246,0,0,1,7.375,2h20.25A3.246,3.246,0,0,1,31,5.1V29.9A3.246,3.246,0,0,1,27.625,33H7.375A3.246,3.246,0,0,1,4,29.9Zm23.625,0H7.375V29.9h20.25ZM10.75,12.85a1.623,1.623,0,0,1,1.688-1.55H22.563a1.623,1.623,0,0,1,1.688,1.55,1.623,1.623,0,0,1-1.687,1.55H12.438A1.623,1.623,0,0,1,10.75,12.85Zm1.688,6.2a1.556,1.556,0,1,0,0,3.1H17.5a1.556,1.556,0,1,0,0-3.1Z" transform="translate(0 0)" fill="#747474" fill-rule="evenodd"/>
  </g>
</svg>
