<svg id="Building" xmlns="http://www.w3.org/2000/svg" width="35" height="35" viewBox="0 0 35 35">
  <g id="home_3_line">
    <path id="MingCute" d="M35,0V35H0V0ZM18.366,33.918l-.017,0-.1.052-.028.005h0l-.022-.005-.1-.052a.031.031,0,0,0-.034.008l-.006.016-.025.623.007.03.016.018.151.108.022.006h0l.017-.006.151-.108.018-.023h0l0-.024-.025-.623a.031.031,0,0,0-.023-.026Zm.386-.164-.02,0-.269.135-.015.015h0l0,.016.026.626.007.019h0l.012.01.293.135a.037.037,0,0,0,.042-.012l.006-.021-.05-.9a.037.037,0,0,0-.028-.031Zm-1.043,0a.033.033,0,0,0-.04.008l-.008.02-.05.9a.033.033,0,0,0,.025.034l.023,0,.293-.135.014-.012h0l.006-.017L18,33.922l0-.018h0l-.014-.013Z" fill="none"/>
    <path id="形状" d="M15.6,2.936a3.041,3.041,0,0,1,3.591-.157l.215.157L32.4,13.285a1.6,1.6,0,0,1-.773,2.833l-.18.01H29.9v12.7a3.145,3.145,0,0,1-2.869,3.166L26.8,32H8.2a3.131,3.131,0,0,1-3.091-2.937L5.1,28.826v-12.7H3.555a1.6,1.6,0,0,1-1.089-2.722l.136-.121Zm1.9,2.506L7.619,13.311A1.615,1.615,0,0,1,8.2,14.557V28.826h4.65V20.89a4.651,4.651,0,1,1,9.3,0v7.936H26.8V14.557a1.615,1.615,0,0,1,.58-1.246Zm0,13.861a1.569,1.569,0,0,0-1.55,1.587v7.936h3.1V20.89A1.569,1.569,0,0,0,17.5,19.3Z" fill="#747474"/>
  </g>
</svg>
