<svg xmlns="http://www.w3.org/2000/svg" xmlns:xlink="http://www.w3.org/1999/xlink" width="85" height="85" viewBox="0 0 85 85">
  <defs>
    <filter id="Ellipse_32" x="0" y="0" width="85" height="85" filterUnits="userSpaceOnUse">
      <feOffset dy="3" input="SourceAlpha"/>
      <feGaussianBlur stdDeviation="3" result="blur"/>
      <feFlood flood-opacity="0.161"/>
      <feComposite operator="in" in2="blur"/>
      <feComposite in="SourceGraphic"/>
    </filter>
  </defs>
  <g id="Group_270" data-name="Group 270" transform="translate(-153 -753)">
    <g id="Group_267" data-name="Group 267">
      <g id="Group_268" data-name="Group 268">
        <g id="Group_265" data-name="Group 265">
          <g id="Group_266" data-name="Group 266">
            <g transform="matrix(1, 0, 0, 1, 153, 753)" filter="url(#Ellipse_32)">
              <g id="Ellipse_32-2" data-name="Ellipse 32" transform="translate(9 6)" fill="#fff" stroke="#c4c4c4" stroke-width="3">
                <circle cx="33.5" cy="33.5" r="33.5" stroke="none"/>
                <circle cx="33.5" cy="33.5" r="32" fill="none"/>
              </g>
            </g>
          </g>
        </g>
      </g>
    </g>
    <g id="Group_269" data-name="Group 269">
      <g id="Icon" transform="translate(176.427 773.927)">
        <g id="Business">
          <g id="ticket_line">
            <path id="MingCute" d="M37.145,0V37.145H0V0ZM19.491,36l-.018,0-.11.055-.029.006-.024-.006L19.2,36a.033.033,0,0,0-.037.008l-.006.017-.026.661.008.032.017.019.16.115.023.006.018-.006.16-.115.02-.025.005-.026-.026-.661A.033.033,0,0,0,19.491,36Zm.41-.174-.022,0-.286.143-.015.016,0,.017.028.665.007.02.013.011.311.143a.039.039,0,0,0,.044-.012l.006-.022-.053-.951A.039.039,0,0,0,19.9,35.822Zm-1.107,0a.036.036,0,0,0-.042.008l-.009.022-.053.951a.035.035,0,0,0,.026.036l.024,0,.311-.143.015-.013.006-.018L19.1,36l0-.02-.015-.014Z" fill="none"/>
            <path id="形状" d="M6.643,7.1A1.548,1.548,0,0,0,5.1,8.643V24.12a1.548,1.548,0,0,0,1.548,1.548h11.1a4.645,4.645,0,0,1,8.758,0h1.812a1.548,1.548,0,0,0,1.548-1.548V8.643A1.548,1.548,0,0,0,28.311,7.1H26.5a4.645,4.645,0,0,1-8.758,0ZM2,8.643A4.643,4.643,0,0,1,6.643,4H19.025a1.548,1.548,0,0,1,1.548,1.548,1.548,1.548,0,0,0,3.1,0A1.548,1.548,0,0,1,25.216,4h3.1a4.643,4.643,0,0,1,4.643,4.643V24.12a4.643,4.643,0,0,1-4.643,4.643h-3.1a1.548,1.548,0,0,1-1.548-1.548,1.548,1.548,0,0,0-3.1,0,1.548,1.548,0,0,1-1.548,1.548H6.643A4.643,4.643,0,0,1,2,24.12Zm20.12,3.1a1.548,1.548,0,0,1,1.548,1.548v.774a1.548,1.548,0,1,1-3.1,0v-.774A1.548,1.548,0,0,1,22.12,11.739ZM23.668,18.7a1.548,1.548,0,1,0-3.1,0v.774a1.548,1.548,0,0,0,3.1,0Z" transform="translate(1.095 2.191)" fill="#c4c4c4" fill-rule="evenodd"/>
          </g>
        </g>
      </g>
    </g>
  </g>
</svg>
