<svg id="页面-1" xmlns="http://www.w3.org/2000/svg" width="44" height="44" viewBox="0 0 44 44">
  <g id="User">
    <g id="group_line">
      <path id="MingCute" d="M44,0V44H0V0ZM23.088,42.639l-.021,0-.13.065-.035.007h0l-.028-.007-.13-.065a.039.039,0,0,0-.043.01l-.008.02-.031.783.009.037.02.022.19.136.027.007h0l.022-.007.19-.136.023-.029h0l.006-.03-.031-.783a.039.039,0,0,0-.029-.033Zm.486-.206-.025,0-.339.169-.018.019h0l0,.021.033.787.009.023h0l.015.013.368.17a.046.046,0,0,0,.052-.015l.007-.026-.063-1.127a.047.047,0,0,0-.035-.039Zm-1.311,0a.042.042,0,0,0-.05.01l-.01.026L22.139,43.6a.042.042,0,0,0,.031.043l.029,0,.368-.17.017-.015h0l.007-.022.033-.787-.006-.023h0l-.017-.016Z" fill="none"/>
      <path id="形状" d="M22.167,21.333A7.333,7.333,0,0,1,29.5,28.667v3.667a1.833,1.833,0,0,1-3.667,0V28.667A3.667,3.667,0,0,0,22.167,25H9.333a3.667,3.667,0,0,0-3.667,3.667v3.667a1.833,1.833,0,0,1-3.667,0V28.667a7.333,7.333,0,0,1,7.333-7.333Zm11,0a5.5,5.5,0,0,1,5.5,5.5V30.5A1.833,1.833,0,1,1,35,30.5V26.834A1.833,1.833,0,0,0,33.166,25h-2.6a9.2,9.2,0,0,0-2.9-3.667ZM15.75,3A8.25,8.25,0,1,1,7.5,11.25,8.25,8.25,0,0,1,15.75,3ZM31.333,8.5a5.5,5.5,0,1,1-5.5,5.5A5.5,5.5,0,0,1,31.333,8.5ZM15.75,6.667a4.583,4.583,0,1,0,4.583,4.583A4.583,4.583,0,0,0,15.75,6.667Zm15.583,5.5A1.833,1.833,0,1,0,33.167,14,1.833,1.833,0,0,0,31.333,12.167Z" transform="translate(1.667 2.5)" fill="#fdad33" fill-rule="evenodd"/>
    </g>
  </g>
</svg>
