<svg id="页面-1" xmlns="http://www.w3.org/2000/svg" width="35" height="35" viewBox="0 0 35 35">
  <g id="location_2_line">
    <path id="MingCute" d="M35,0V35H0V0ZM18.366,33.918l-.017,0-.1.052-.028.005h0l-.022-.005-.1-.052a.031.031,0,0,0-.034.008l-.006.016-.025.623.007.03.016.018.151.108.022.006h0l.017-.006.151-.108.018-.023h0l0-.024-.025-.623a.031.031,0,0,0-.023-.026Zm.386-.164-.02,0-.269.135-.015.015h0l0,.016.026.626.007.019h0l.012.01.293.135a.037.037,0,0,0,.042-.012l.006-.021-.05-.9a.037.037,0,0,0-.028-.031Zm-1.043,0a.033.033,0,0,0-.04.008l-.008.02-.05.9a.033.033,0,0,0,.025.034l.023,0,.293-.135.014-.012h0l.006-.017L18,33.922l0-.018h0l-.014-.013Z" fill="none"/>
    <path id="形状" d="M8.59,24.692a1.714,1.714,0,0,1,2.092,1.054,1.535,1.535,0,0,1-1.148,1.922,8.482,8.482,0,0,0-1.841.682,8.671,8.671,0,0,0,1.918.7A32.685,32.685,0,0,0,17.5,29.9a32.684,32.684,0,0,0,7.889-.848,8.669,8.669,0,0,0,1.918-.7,8.48,8.48,0,0,0-1.841-.682,1.535,1.535,0,0,1-1.148-1.922,1.714,1.714,0,0,1,2.092-1.054,11.005,11.005,0,0,1,2.952,1.187A3.055,3.055,0,0,1,31,28.35a3.076,3.076,0,0,1-1.671,2.491,11.268,11.268,0,0,1-3.013,1.191A36.249,36.249,0,0,1,17.5,33a36.249,36.249,0,0,1-8.816-.968,11.265,11.265,0,0,1-3.013-1.191A3.076,3.076,0,0,1,4,28.35a3.056,3.056,0,0,1,1.638-2.47A11.006,11.006,0,0,1,8.59,24.692ZM17.5,2c6.99,0,12.656,5.2,12.656,11.625,0,3.98-2.362,7.217-4.809,9.516a26.956,26.956,0,0,1-3.127,2.5c-1,.691-3.293,1.986-3.293,1.986a3.11,3.11,0,0,1-2.854,0,35.441,35.441,0,0,1-3.293-1.986,26.955,26.955,0,0,1-3.127-2.5c-2.447-2.3-4.809-5.535-4.809-9.516C4.844,7.2,10.51,2,17.5,2Zm0,3.1c-5.126,0-9.281,3.817-9.281,8.525,0,2.816,1.68,5.313,3.847,7.348a25.822,25.822,0,0,0,4.671,3.413q.691.385.764.424l.764-.424a25.823,25.823,0,0,0,4.671-3.413c2.167-2.035,3.847-4.532,3.847-7.348C26.781,8.917,22.626,5.1,17.5,5.1Zm0,3.875a4.869,4.869,0,0,1,5.063,4.65,4.869,4.869,0,0,1-5.062,4.65,4.869,4.869,0,0,1-5.062-4.65A4.869,4.869,0,0,1,17.5,8.975Zm0,3.1a1.623,1.623,0,0,0-1.687,1.55,1.694,1.694,0,0,0,3.375,0A1.623,1.623,0,0,0,17.5,12.075Z" fill="#747474"/>
  </g>
</svg>
