<svg id="页面-1" xmlns="http://www.w3.org/2000/svg" width="39.513" height="35.204" viewBox="0 0 39.513 35.204">
  <g id="Building">
    <g id="store_line">
      <path id="MingCute" d="M39.513,0V35.2H0V0ZM20.733,34.115l-.019,0-.117.052-.031.005h0l-.025-.005-.117-.052a.038.038,0,0,0-.039.008l-.007.016-.028.627.008.03.018.018.171.109.024.006h0l.019-.006.171-.109.021-.024h0l.006-.024-.028-.627a.033.033,0,0,0-.026-.026Zm.436-.165-.023,0-.3.135-.016.015h0l0,.016.029.63.008.019h0l.014.01.331.136a.045.045,0,0,0,.047-.012l.007-.021-.056-.9a.039.039,0,0,0-.032-.031Zm-1.178,0a.041.041,0,0,0-.045.008l-.009.02-.056.9a.034.034,0,0,0,.028.034l.026,0,.331-.136.016-.012h0l.006-.017.029-.63-.005-.018h0l-.016-.013Z" fill="none"/>
      <path id="形状" d="M30.3,3a3.744,3.744,0,0,1,2.921,1.365l4.908,6.115A1.625,1.625,0,0,1,38.5,11.53h.015v1.706a6.55,6.55,0,0,1-1.826,4.514V30.3a3.538,3.538,0,0,1-3.652,3.412H7.477A3.538,3.538,0,0,1,3.826,30.3V17.75A6.55,6.55,0,0,1,2,13.237V11.53h.015a1.625,1.625,0,0,1,.372-1.051L7.295,4.365A3.744,3.744,0,0,1,10.216,3ZM25.736,17.75a7.648,7.648,0,0,1-10.955,0A7.515,7.515,0,0,1,9.3,20.061a7.844,7.844,0,0,1-1.383-.122l-.443-.093V30.3H33.039V19.846l-.443.093a7.844,7.844,0,0,1-1.383.122A7.514,7.514,0,0,1,25.736,17.75Zm9.129-4.514h-7.3a3.669,3.669,0,0,0,7.293.255Zm-10.955,0h-7.3a3.538,3.538,0,0,0,3.652,3.412A3.56,3.56,0,0,0,23.9,13.491Zm-10.955,0h-7.3A3.538,3.538,0,0,0,9.3,16.649a3.56,3.56,0,0,0,3.642-3.158ZM30.3,6.412H10.216L7.477,9.824H33.039Z" transform="translate(-0.502 -0.753)" fill="#c4c4c4" fill-rule="evenodd"/>
    </g>
  </g>
</svg>
