<svg id="页面-1" xmlns="http://www.w3.org/2000/svg" width="32.075" height="32.075" viewBox="0 0 32.075 32.075">
  <g id="location_2_fill">
    <path id="MingCute" d="M32.075,0V32.075H0V0ZM16.831,31.083l-.015,0-.095.047-.025,0h0l-.02,0-.095-.047a.028.028,0,0,0-.031.007l-.005.015-.023.571.007.027.015.016.138.1.02.005h0l.016-.005.138-.1.017-.021h0l0-.022-.023-.571a.028.028,0,0,0-.021-.024Zm.354-.15-.018,0-.247.123-.013.014h0l0,.015.024.574.006.017h0l.011.009.269.124a.034.034,0,0,0,.038-.011l.005-.019-.046-.821a.034.034,0,0,0-.026-.028Zm-.956,0a.031.031,0,0,0-.037.007l-.008.019-.046.821a.031.031,0,0,0,.023.031l.021,0,.269-.124.013-.011h0l.005-.016.024-.574,0-.017h0l-.013-.012Z" fill="none"/>
    <path id="形状" d="M7.635,21.566a1.336,1.336,0,0,1,.748,2.566,6.388,6.388,0,0,0-1.458.588,6.526,6.526,0,0,0,1.519.605,23.874,23.874,0,0,0,6.248.731,23.874,23.874,0,0,0,6.248-.731,6.525,6.525,0,0,0,1.519-.605A6.386,6.386,0,0,0,21,24.132a1.336,1.336,0,0,1,.748-2.566,8.327,8.327,0,0,1,2.338,1.024,2.648,2.648,0,0,1,1.3,2.13,2.663,2.663,0,0,1-1.324,2.148,8.516,8.516,0,0,1-2.386,1.027,26.48,26.48,0,0,1-6.982.834,26.48,26.48,0,0,1-6.982-.834,8.515,8.515,0,0,1-2.386-1.027A2.663,2.663,0,0,1,4,24.719a2.648,2.648,0,0,1,1.3-2.13A8.328,8.328,0,0,1,7.635,21.566ZM14.692,2A10.024,10.024,0,0,1,24.715,12.023a11.94,11.94,0,0,1-3.809,8.2,21.773,21.773,0,0,1-2.477,2.16c-.793.6-2.608,1.713-2.608,1.713a2.285,2.285,0,0,1-2.26,0,27.713,27.713,0,0,1-2.608-1.713,21.771,21.771,0,0,1-2.477-2.16,11.94,11.94,0,0,1-3.809-8.2A10.023,10.023,0,0,1,14.692,2Zm0,7.351a2.673,2.673,0,1,0,2.673,2.673A2.673,2.673,0,0,0,14.692,9.351Z" transform="translate(1.346 0.673)" fill="#956aff"/>
  </g>
</svg>
