<svg id="heart_line" xmlns="http://www.w3.org/2000/svg" width="21.713" height="21.713" viewBox="0 0 21.713 21.713">
  <path id="MingCute" d="M21.713,0V21.713H0V0ZM11.393,21.041l-.01,0-.064.032-.017,0h0l-.014,0-.064-.032a.019.019,0,0,0-.021,0l0,.01-.015.387,0,.018.01.011.094.067.013,0h0l.011,0,.094-.067.011-.015h0l0-.015-.015-.387a.019.019,0,0,0-.015-.016Zm.24-.1-.013,0-.167.084-.009.009h0l0,.01.016.389,0,.012h0l.008.006.182.084a.023.023,0,0,0,.026-.007l0-.013-.031-.556a.023.023,0,0,0-.017-.019Zm-.647,0a.021.021,0,0,0-.025,0l-.005.013-.031.556a.021.021,0,0,0,.015.021h.014l.182-.084.009-.007h0l0-.011.016-.389,0-.011h0l-.009-.008Z" fill="none"/>
  <path id="形状" d="M16.922,3.725a6.688,6.688,0,0,1,3.17,5.964c-.073,3.265-2.615,6.146-6.947,8.719a4.335,4.335,0,0,1-2.1.877,4.419,4.419,0,0,1-2.1-.877C4.617,15.835,2.075,12.954,2,9.689a6.688,6.688,0,0,1,3.17-5.964,5.03,5.03,0,0,1,5.875.486A5.03,5.03,0,0,1,16.922,3.725Zm-.911,1.563a3.288,3.288,0,0,0-4.2.672,1.074,1.074,0,0,1-1.525,0,3.288,3.288,0,0,0-4.2-.672,4.882,4.882,0,0,0-2.272,4.36c.051,2.273,1.845,4.7,6.062,7.2a5.15,5.15,0,0,0,1.174.618,5.15,5.15,0,0,0,1.174-.618c4.217-2.5,6.011-4.932,6.062-7.2A4.882,4.882,0,0,0,16.011,5.288Z" transform="translate(-0.191 -0.286)" fill="#09244b" fill-rule="evenodd"/>
</svg>
