<svg xmlns="http://www.w3.org/2000/svg" width="14.412" height="14.412" viewBox="0 0 14.412 14.412">
    <g id="Shape" transform="translate(0)">
        <g id="star_fill" transform="translate(0)">
            <path id="MingCute"
                d="M14.412,0V14.412H0V0ZM7.562,13.966H7.555l-.043.021-.011,0h0l-.009,0-.043-.021a.013.013,0,0,0-.014,0l0,.007-.01.257,0,.012.007.007.062.044.009,0h0l.007,0,.062-.044.008-.01h0l0-.01-.01-.257a.013.013,0,0,0-.01-.011Zm.159-.068H7.713l-.111.055-.006.006h0l0,.007.011.258,0,.008h0l.005,0,.121.056a.015.015,0,0,0,.017,0l0-.008-.021-.369a.015.015,0,0,0-.012-.013Zm-.43,0a.014.014,0,0,0-.016,0l0,.008-.021.369a.014.014,0,0,0,.01.014h.009l.121-.056.006,0h0l0-.007.011-.258,0-.008h0L7.4,13.955Z"
                fill="none" />
            <path id="路径"
                d="M7.238,2.619a.75.75,0,0,1,1.3,0L10.212,5.5,13.47,6.2a.75.75,0,0,1,.4,1.233L11.65,9.923l.336,3.316A.75.75,0,0,1,10.936,14l-3.05-1.344L4.836,14a.75.75,0,0,1-1.049-.762l.336-3.316L1.9,7.437A.75.75,0,0,1,2.3,6.2L5.561,5.5Z"
                transform="translate(-0.681 -0.894)" fill="#fdad15" />
        </g>
    </g>
</svg>
