<svg xmlns="http://www.w3.org/2000/svg" width="18.04" height="18.04" viewBox="0 0 18.04 18.04">
    <g id="页面-1" transform="translate(0)">
        <g id="Shape" transform="translate(0)">
            <g id="star_line">
                <path id="MingCute"
                    d="M18.04,0V18.04H0V0ZM9.466,17.482H9.457L9.4,17.51l-.014,0h0l-.011,0-.053-.027a.016.016,0,0,0-.018,0l0,.008-.013.321,0,.015.008.009.078.056.011,0h0l.009,0,.078-.056.009-.012h0l0-.012L9.478,17.5a.016.016,0,0,0-.012-.014Zm.2-.085-.01,0-.139.069-.007.008h0l0,.008.013.323,0,.01h0l.006.005.151.07a.019.019,0,0,0,.021-.006l0-.011-.026-.462a.019.019,0,0,0-.014-.016Zm-.538,0a.017.017,0,0,0-.021,0l0,.01-.026.462a.017.017,0,0,0,.013.018H9.1l.151-.07.007-.006h0l0-.009.013-.323,0-.009h0l-.007-.007Z"
                    fill="none" />
                <path id="形状"
                    d="M7.482,2.611a.811.811,0,0,1,1.354,0L10.587,5.43l3.4.69a.721.721,0,0,1,.418,1.207L12.088,9.759,12.439,13a.775.775,0,0,1-1.1.746L8.159,12.434,4.974,13.749A.775.775,0,0,1,3.879,13l.351-3.245L1.911,7.327A.721.721,0,0,1,2.329,6.12l3.4-.69Zm.677,1.245L6.709,6.189a.782.782,0,0,1-.511.348l-2.815.571L5.3,9.121a.7.7,0,0,1,.2.563l-.29,2.686,2.636-1.088a.832.832,0,0,1,.632,0l2.636,1.088-.29-2.686a.7.7,0,0,1,.2-.563l1.919-2.013L10.12,6.537a.782.782,0,0,1-.511-.348Z"
                    transform="translate(0.861 1.131)" fill="#8e8e8e" fill-rule="evenodd" />
            </g>
        </g>
    </g>
</svg>
