<svg xmlns="http://www.w3.org/2000/svg" width="350" height="34" viewBox="0 0 350 34">
  <g id="Group_305" data-name="Group 305" transform="translate(-23 -99)">
    <g id="Rectangle_124" data-name="Rectangle 124" transform="translate(40 104)" fill="#d9d9d9" stroke="#e5e5e5" stroke-width="1">
      <rect width="310" height="24" rx="10" stroke="none"/>
      <rect x="0.5" y="0.5" width="309" height="23" rx="9.5" fill="none"/>
    </g>
    <g id="Rectangle_125" data-name="Rectangle 125" transform="translate(40 104)" fill="#fdad33" stroke="#fdad33" stroke-width="1">
      <path d="M10,0H31a0,0,0,0,1,0,0V24a0,0,0,0,1,0,0H10A10,10,0,0,1,0,14V10A10,10,0,0,1,10,0Z" stroke="none"/>
      <path d="M10,.5H30.5a0,0,0,0,1,0,0v23a0,0,0,0,1,0,0H10A9.5,9.5,0,0,1,.5,14V10A9.5,9.5,0,0,1,10,.5Z" fill="none"/>
    </g>
    <g id="Group_304" data-name="Group 304">
      <g id="Group_276" data-name="Group 276" transform="translate(-34 13)">
        <g id="Ellipse_36" data-name="Ellipse 36" transform="translate(57 86)" fill="#fdad33" stroke="#ff9a00" stroke-width="2">
          <circle cx="17" cy="17" r="17" stroke="none"/>
          <circle cx="17" cy="17" r="16" fill="none"/>
        </g>
        <text id="_1" data-name="1" transform="translate(67 111)" fill="#fff" font-size="19" font-family="HiraKakuProN-W6, Hiragino Kaku Gothic ProN"><tspan x="0" y="0">1</tspan></text>
      </g>
      <g id="Group_276-2" data-name="Group 276" transform="translate(45 13)">
        <g id="Ellipse_36-2" data-name="Ellipse 36" transform="translate(57 86)" fill="#d9d9d9" stroke="#fff" stroke-width="2">
          <circle cx="17" cy="17" r="17" stroke="none"/>
          <circle cx="17" cy="17" r="16" fill="none"/>
        </g>
        <text id="_2" data-name="2" transform="translate(67 111)" fill="#fff" font-size="19" font-family="HiraKakuProN-W6, Hiragino Kaku Gothic ProN"><tspan x="0" y="0">2</tspan></text>
      </g>
      <g id="Group_276-3" data-name="Group 276" transform="translate(124 13)">
        <g id="Ellipse_36-3" data-name="Ellipse 36" transform="translate(57 86)" fill="#d9d9d9" stroke="#fff" stroke-width="2">
          <circle cx="17" cy="17" r="17" stroke="none"/>
          <circle cx="17" cy="17" r="16" fill="none"/>
        </g>
        <text id="_3" data-name="3" transform="translate(67 111)" fill="#fff" font-size="19" font-family="HiraKakuProN-W6, Hiragino Kaku Gothic ProN"><tspan x="0" y="0">3</tspan></text>
      </g>
      <g id="Group_276-4" data-name="Group 276" transform="translate(203 13)">
        <g id="Path_433" data-name="Path 433" transform="translate(57 86)" fill="#d9d9d9">
          <path d="M 17 33 C 12.72624969482422 33 8.708290100097656 31.3357105255127 5.68628978729248 28.3137092590332 C 2.664289951324463 25.29170989990234 1 21.27375030517578 1 17 C 1 12.72624969482422 2.664289951324463 8.708290100097656 5.68628978729248 5.68628978729248 C 8.708290100097656 2.664289951324463 12.72624969482422 1 17 1 C 21.27375030517578 1 25.29170989990234 2.664289951324463 28.3137092590332 5.68628978729248 C 31.3357105255127 8.708290100097656 33 12.72624969482422 33 17 C 33 21.27375030517578 31.3357105255127 25.29170989990234 28.3137092590332 28.3137092590332 C 25.29170989990234 31.3357105255127 21.27375030517578 33 17 33 Z" stroke="none"/>
          <path d="M 17 2 C 12.99336051940918 2 9.226520538330078 3.560270309448242 6.393400192260742 6.393400192260742 C 3.560270309448242 9.226520538330078 2 12.99336051940918 2 17 C 2 21.00664138793945 3.560270309448242 24.77347946166992 6.393400192260742 27.60659980773926 C 9.226520538330078 30.43972969055176 12.99336051940918 32 17 32 C 21.00664138793945 32 24.77347946166992 30.43972969055176 27.60659980773926 27.60659980773926 C 30.43972969055176 24.77347946166992 32 21.00664138793945 32 17 C 32 12.99336051940918 30.43972969055176 9.226520538330078 27.60659980773926 6.393400192260742 C 24.77347946166992 3.560270309448242 21.00664138793945 2 17 2 M 17 0 C 26.38883972167969 0 34 7.611160278320312 34 17 C 34 26.38883972167969 26.38883972167969 34 17 34 C 7.611160278320312 34 0 26.38883972167969 0 17 C 0 7.611160278320312 7.611160278320312 0 17 0 Z" stroke="none" fill="#fff"/>
        </g>
        <text id="_4" data-name="4" transform="translate(67 111)" fill="#fff" font-size="19" font-family="HiraKakuProN-W6, Hiragino Kaku Gothic ProN"><tspan x="0" y="0">4</tspan></text>
      </g>
      <g id="Group_276-5" data-name="Group 276" transform="translate(282 13)">
        <g id="Ellipse_36-4" data-name="Ellipse 36" transform="translate(57 86)" fill="#d9d9d9" stroke="#fff" stroke-width="2">
          <circle cx="17" cy="17" r="17" stroke="none"/>
          <circle cx="17" cy="17" r="16" fill="none"/>
        </g>
        <text id="_5" data-name="5" transform="translate(67 111)" fill="#fff" font-size="19" font-family="HiraKakuProN-W6, Hiragino Kaku Gothic ProN"><tspan x="0" y="0">5</tspan></text>
      </g>
    </g>
  </g>
</svg>
