<svg id="Shape" xmlns="http://www.w3.org/2000/svg" width="23.781" height="23.781" viewBox="0 0 23.781 23.781">
  <g id="star_fill">
    <path id="MingCute" d="M23.781,0V23.781H0V0Zm-11.3,23.046-.011,0-.07.035-.019,0h0l-.015,0-.07-.035a.021.021,0,0,0-.023.005l0,.011-.017.423,0,.02.011.012.1.073.015,0h0l.012,0,.1-.073.012-.016h0l0-.016-.017-.423a.021.021,0,0,0-.016-.018Zm.262-.112-.014,0-.183.092-.01.01h0l0,.011.018.426,0,.013h0l.008.007.2.092a.025.025,0,0,0,.028-.008l0-.014-.034-.609a.025.025,0,0,0-.019-.021Zm-.709,0a.023.023,0,0,0-.027.005L12,22.955l-.034.609a.023.023,0,0,0,.017.023H12l.2-.092.009-.008h0l0-.012.018-.426,0-.012h0l-.009-.009Z" fill="none"/>
    <path id="路径" d="M10.832,2.862a1.238,1.238,0,0,1,2.14,0l2.768,4.752,5.376,1.164a1.238,1.238,0,0,1,.661,2.035l-3.665,4.1.554,5.471a1.238,1.238,0,0,1-1.731,1.257L11.9,19.424,6.868,21.642a1.238,1.238,0,0,1-1.731-1.257l.554-5.471-3.665-4.1a1.238,1.238,0,0,1,.661-2.035L8.063,7.614Z" transform="translate(-0.011 -0.014)" fill="#fdad15"/>
  </g>
</svg>
